<?xml version="1.0" standalone="no"?>
<!DOCTYPE svg PUBLIC "-//W3C//DTD SVG 20010904//EN"
 "http://www.w3.org/TR/2001/REC-SVG-20010904/DTD/svg10.dtd">
<svg version="1.0" xmlns="http://www.w3.org/2000/svg"
 width="1024.000000pt" height="1024.000000pt" viewBox="0 0 1024.000000 1024.000000"
 preserveAspectRatio="xMidYMid meet">
<metadata>
Created by potrace 1.11, written by Peter Selinger 2001-2013
</metadata>
<g transform="translate(0.000000,1024.000000) scale(0.100000,-0.100000)"
fill="#000000" stroke="none">
<path d="M5067 8216 c-3 -90 -2 -178 3 -195 6 -22 4 -64 -8 -134 -17 -108 -19
-178 -7 -264 7 -46 4 -59 -19 -102 -14 -28 -26 -57 -26 -65 0 -8 -16 -44 -35
-80 -37 -70 -43 -101 -22 -109 6 -3 0 -6 -15 -6 -18 -1 -31 6 -38 20 -9 16
-14 18 -26 8 -39 -32 -57 -72 -55 -120 1 -43 -2 -51 -21 -58 -32 -12 -64 -49
-84 -96 -17 -42 -101 -192 -119 -212 -5 -7 -26 -33 -45 -59 -19 -26 -62 -80
-95 -121 -33 -41 -67 -84 -75 -97 -8 -12 -40 -46 -70 -76 -30 -29 -63 -65 -72
-79 -26 -39 -159 -170 -194 -192 -18 -10 -37 -33 -44 -49 -7 -17 -16 -30 -20
-30 -4 0 -23 -14 -43 -31 -20 -17 -62 -46 -94 -66 -32 -19 -62 -41 -66 -49 -4
-8 -29 -26 -55 -39 -26 -14 -67 -39 -92 -55 -25 -17 -58 -38 -74 -48 -15 -9
-44 -27 -63 -39 -18 -13 -39 -23 -45 -23 -5 0 -31 -17 -57 -38 -25 -21 -73
-55 -106 -77 -33 -22 -69 -47 -80 -56 -11 -9 -45 -30 -75 -47 -30 -16 -93 -51
-140 -76 -47 -26 -91 -51 -99 -55 -8 -4 -17 -13 -19 -19 -12 -38 237 97 413
223 28 20 68 45 89 57 21 11 47 28 58 37 10 10 31 24 45 32 52 27 128 74 164
102 20 15 40 27 44 27 4 0 23 11 41 25 18 14 36 25 39 25 3 0 31 20 62 45 49
40 73 54 73 41 0 -9 -66 -76 -105 -106 -22 -17 -56 -44 -75 -60 -80 -67 -135
-110 -141 -110 -4 0 -48 -33 -97 -72 -177 -143 -218 -174 -317 -237 -55 -35
-107 -66 -115 -69 -8 -3 -22 -11 -30 -18 -25 -20 -118 -70 -240 -129 -63 -31
-123 -60 -134 -66 -17 -10 -124 -46 -288 -98 -41 -13 -78 -18 -97 -15 -28 6
-31 3 -52 -40 -13 -29 -28 -46 -39 -46 -29 0 -43 26 -36 66 5 22 3 41 -4 49
-15 18 -4 35 22 35 37 0 95 22 124 47 l29 24 -45 -6 c-47 -6 -115 -26 -126
-38 -15 -15 -39 -6 -65 26 -23 26 -31 30 -46 21 -13 -8 -18 -24 -18 -59 0 -44
3 -50 25 -55 20 -5 26 -13 28 -43 3 -35 2 -37 -27 -37 l-30 0 1 -60 c1 -57 -1
-62 -38 -99 -65 -64 -145 -170 -155 -204 -5 -18 -20 -45 -34 -62 -38 -44 -125
-168 -125 -178 0 -16 -52 -76 -70 -82 -19 -6 -128 -132 -149 -173 -26 -48 32
-11 142 91 79 73 107 106 107 124 0 17 26 50 86 111 47 48 93 101 101 117 23
43 126 165 141 165 12 0 19 -76 14 -160 -1 -19 -3 -73 -5 -120 -4 -96 -39
-350 -62 -455 -9 -38 -20 -90 -25 -115 -5 -25 -16 -67 -24 -95 -9 -27 -23 -75
-32 -105 -8 -30 -22 -75 -30 -100 -21 -61 -45 -145 -58 -205 -6 -27 -23 -66
-39 -86 -15 -20 -27 -44 -27 -54 0 -10 -10 -34 -22 -54 -13 -20 -30 -49 -39
-66 -18 -33 -89 -64 -149 -66 -19 0 -69 -13 -110 -29 l-75 -29 70 4 c39 3 75
5 80 6 6 1 22 -2 38 -6 21 -6 27 -4 27 9 0 10 9 16 24 16 27 0 41 -14 30 -31
-3 -6 -7 -28 -8 -49 -1 -21 -9 -49 -18 -62 -9 -14 -20 -41 -23 -60 -7 -34 -6
-35 31 -41 26 -4 43 -2 54 7 17 16 89 38 100 31 13 -8 58 45 65 76 4 18 17 35
36 44 16 9 29 20 29 26 0 5 35 45 77 87 69 69 203 233 203 249 0 4 7 13 15 22
39 43 82 100 99 131 10 19 28 45 40 56 32 33 136 173 231 310 53 76 129 158
143 153 6 -2 -11 -35 -39 -76 -27 -40 -49 -79 -49 -88 0 -8 -4 -15 -10 -15 -5
0 -10 -8 -10 -18 0 -10 -12 -29 -27 -43 -43 -39 -93 -97 -93 -109 0 -6 -14
-24 -30 -42 -17 -17 -30 -36 -30 -43 0 -6 -11 -22 -25 -35 -37 -34 -76 -109
-79 -149 -1 -19 -7 -36 -14 -39 -7 -2 -12 -12 -12 -21 0 -18 -29 -51 -46 -51
-5 0 -19 -22 -31 -48 -12 -26 -26 -54 -31 -62 -5 -8 -17 -31 -26 -50 -8 -19
-29 -51 -45 -70 -26 -31 -29 -40 -24 -78 5 -41 7 -43 34 -37 22 5 31 1 44 -19
33 -50 59 -59 136 -46 54 9 76 18 98 41 34 33 60 37 90 11 23 -19 23 -22 -16
-150 -17 -55 -13 -73 12 -52 13 11 22 10 53 -6 50 -25 52 -30 47 -94 -12 -157
-11 -184 8 -188 19 -4 69 39 80 68 4 12 6 11 6 -2 2 -43 111 11 111 55 0 8 7
20 15 27 12 10 16 9 20 -4 3 -9 7 -23 10 -32 3 -9 11 -14 20 -10 32 12 88 -81
65 -109 -16 -19 12 -37 56 -33 33 3 40 -1 62 -32 l24 -35 -7 34 -7 34 23 -22
c17 -16 31 -20 51 -16 20 5 29 2 37 -14 6 -11 20 -23 31 -26 19 -6 29 -35 12
-35 -5 0 -17 -6 -27 -14 -16 -12 -17 -16 -6 -30 18 -21 -3 -22 -43 -1 -25 13
-27 13 -22 0 13 -34 -25 -26 -68 13 -36 33 -56 43 -122 57 -43 10 -113 29
-154 42 -41 14 -97 27 -125 30 -27 2 -61 8 -75 13 -14 5 -51 14 -83 20 -32 7
-61 18 -63 25 -3 7 -38 29 -77 48 -40 20 -87 47 -106 61 -19 14 -44 26 -56 26
-12 0 -25 4 -31 8 -5 5 -36 17 -69 27 -33 9 -93 31 -133 47 -40 17 -75 28 -78
26 -2 -3 -12 -36 -22 -74 -18 -71 -15 -89 17 -128 18 -21 31 -11 31 25 0 22 5
29 19 29 10 0 21 7 25 15 3 8 13 15 21 15 9 0 26 5 38 12 29 15 87 21 87 9 0
-5 -21 -26 -46 -47 -39 -32 -45 -42 -42 -70 1 -17 -3 -38 -10 -46 -6 -8 -11
-32 -10 -54 1 -21 -2 -57 -6 -80 -7 -35 -5 -44 17 -69 21 -25 27 -28 41 -16
14 12 16 11 16 -9 0 -13 8 -24 19 -27 11 -3 24 -17 29 -33 6 -15 19 -36 31
-47 18 -17 19 -24 10 -59 -6 -21 -16 -44 -23 -49 -7 -6 -16 -20 -20 -33 -6
-19 -4 -22 21 -23 23 -2 24 -2 6 -6 -13 -2 -23 -10 -23 -16 0 -8 -3 -8 -9 1
-12 19 -58 5 -65 -21 -3 -12 -3 -23 -1 -25 2 -2 40 -5 85 -6 64 -1 79 -4 75
-15 -3 -7 -1 -19 5 -26 8 -9 6 -14 -4 -18 -19 -8 -9 -47 13 -47 9 0 31 -14 50
-31 30 -27 32 -34 22 -55 -14 -32 -14 -34 4 -34 8 0 15 -4 15 -10 0 -5 14 -10
31 -10 25 0 29 3 24 19 -15 48 -13 61 11 80 21 17 24 27 24 87 0 86 7 112 32
120 12 3 17 11 14 20 -9 24 28 57 55 49 21 -7 21 -9 6 -20 -9 -7 -17 -15 -17
-19 0 -14 95 -109 117 -117 13 -5 23 -15 23 -23 0 -7 18 -30 40 -50 22 -20 40
-40 40 -45 0 -5 11 -19 25 -29 14 -11 38 -42 53 -70 15 -27 34 -58 43 -70 l15
-21 55 20 c30 11 67 34 84 52 16 18 38 37 49 42 10 6 22 17 27 25 42 84 84
182 104 242 75 233 90 268 111 268 24 0 13 -57 -31 -148 -19 -41 -35 -79 -35
-84 0 -12 -62 -171 -96 -246 -48 -106 -15 -131 36 -27 17 36 36 67 41 70 5 4
9 14 9 25 0 10 7 20 14 23 10 4 13 1 10 -8 -8 -21 15 -57 34 -52 9 2 33 -4 52
-13 52 -26 88 -32 111 -20 14 8 29 8 52 1 18 -6 55 -13 82 -17 28 -3 54 -12
58 -20 4 -8 14 -14 22 -14 8 0 18 -7 23 -16 8 -14 15 -15 40 -6 33 11 52 1 52
-30 0 -23 30 -38 80 -38 30 0 42 -5 47 -17 3 -10 13 -26 21 -36 15 -16 16 -16
35 4 l20 21 17 -22 c19 -25 40 -20 40 10 0 21 46 57 57 46 4 -4 2 -16 -5 -26
-16 -25 -15 -40 1 -40 7 0 21 13 30 30 21 34 47 40 47 10 0 -24 8 -25 30 -5
14 13 20 12 51 -15 41 -35 62 -37 90 -9 18 18 25 20 40 11 12 -8 20 -8 25 -1
3 6 12 8 20 5 16 -6 64 38 64 59 0 24 49 18 85 -9 29 -22 40 -24 101 -20 38 2
80 4 94 4 14 1 35 6 48 12 17 9 25 9 30 1 7 -12 66 -12 77 -1 4 4 12 5 18 2 7
-2 30 -6 52 -8 22 -2 55 -7 73 -11 30 -7 32 -6 32 18 0 14 4 29 10 32 6 3 10
14 10 24 0 14 6 17 26 13 21 -4 25 -1 23 14 -3 19 22 64 54 96 24 25 21 47 -7
54 -22 5 -23 8 -13 25 10 16 9 21 -3 29 -11 7 0 10 37 10 28 0 55 4 58 10 3 5
19 7 35 4 28 -6 28 -5 35 49 7 56 7 56 37 50 29 -6 29 -5 17 16 -16 25 -27 26
-53 6 -17 -13 -22 -13 -38 2 -14 13 -21 14 -30 5 -7 -7 -22 -12 -35 -12 -29 0
-30 22 -3 83 20 44 21 45 59 40 30 -4 42 -1 57 15 26 26 59 35 84 22 14 -7 36
-8 70 -2 39 7 54 6 70 -5 12 -8 30 -13 41 -10 11 3 45 2 77 -3 81 -11 145 11
167 56 18 39 34 37 81 -13 31 -32 54 -42 54 -23 0 12 73 32 92 25 15 -6 38
-60 38 -90 0 -17 -2 -17 -23 3 -19 18 -32 21 -71 17 -26 -2 -54 -11 -62 -20
-9 -8 -22 -15 -29 -15 -10 0 -12 -6 -8 -17 6 -15 4 -16 -9 -5 -18 14 -176 15
-194 1 -6 -5 -38 -12 -70 -15 -32 -3 -75 -10 -94 -15 -47 -12 -53 -11 -47 5 5
11 -3 15 -33 14 -32 0 -39 -4 -43 -24 -3 -19 0 -24 17 -24 12 0 27 -5 34 -12
8 -8 15 -8 28 3 13 11 18 11 21 2 3 -7 15 -13 28 -13 27 0 39 -24 25 -51 -13
-23 -40 -25 -40 -4 0 16 -27 20 -48 6 -10 -6 -11 -13 -1 -33 10 -23 17 -26 63
-26 33 0 57 6 69 16 18 16 20 15 33 -3 18 -25 18 -28 -7 -43 -15 -10 -24 -11
-32 -3 -21 21 -27 11 -27 -44 0 -30 5 -55 10 -55 6 0 10 11 10 24 0 26 14 40
47 48 24 6 63 -16 63 -35 0 -7 14 -27 30 -46 17 -18 30 -38 30 -42 0 -5 7 -9
16 -9 8 0 12 -5 9 -10 -8 -12 64 -82 76 -75 4 3 15 -3 25 -12 12 -12 34 -18
70 -19 29 0 63 -7 76 -16 37 -23 55 -27 67 -15 10 9 16 7 27 -7 11 -16 17 -17
26 -8 7 7 23 12 36 12 13 0 20 4 17 10 -3 5 0 10 9 10 8 0 16 -4 18 -9 2 -4
14 -12 27 -16 22 -7 23 -5 16 21 -29 110 -43 185 -50 274 -7 93 -8 95 -52 190
-16 36 -37 97 -47 135 -18 77 -18 76 -41 220 -8 55 -20 118 -26 141 -6 22 -9
54 -7 70 l4 29 18 -40 c18 -39 30 -96 42 -200 4 -27 10 -54 14 -60 5 -5 14
-38 21 -73 9 -41 20 -67 31 -73 10 -5 18 -15 18 -22 0 -24 27 -50 56 -53 16
-2 46 -7 67 -10 35 -6 51 6 27 21 -19 12 -10 35 13 35 39 0 72 36 72 78 0 30
4 37 25 42 14 4 36 3 49 -2 16 -6 35 -5 52 2 23 10 33 8 68 -14 56 -36 86 -34
107 5 l16 31 -93 92 c-51 50 -113 116 -137 146 -25 30 -76 84 -112 120 -85 82
-97 102 -121 196 -10 42 -37 115 -59 162 -30 63 -40 96 -40 134 0 27 -4 68 -9
91 -6 23 -15 92 -21 152 -7 61 -16 126 -21 145 -12 45 -35 169 -53 286 -11 71
-12 114 -4 195 5 57 11 174 13 259 3 169 14 231 46 254 33 23 46 10 59 -60 7
-35 16 -67 21 -70 5 -3 9 -13 9 -24 0 -10 11 -38 25 -61 14 -24 25 -54 25 -66
0 -11 13 -49 29 -83 16 -34 37 -96 46 -138 9 -42 23 -99 32 -125 8 -27 13 -51
10 -54 -3 -2 6 -35 20 -71 24 -65 51 -148 95 -297 23 -82 59 -176 70 -190 4
-5 8 -16 8 -26 0 -9 14 -47 31 -84 38 -85 53 -134 124 -415 15 -57 35 -124 46
-147 10 -23 19 -47 19 -52 0 -37 55 -142 95 -179 40 -40 47 -43 82 -36 21 3
48 13 61 21 33 20 48 11 73 -44 47 -106 59 -127 59 -110 0 11 -6 31 -14 45 -8
15 -20 47 -27 72 -7 25 -16 50 -21 56 -5 7 -15 34 -22 60 -8 27 -28 86 -45
132 -31 83 -30 107 2 52 36 -61 56 -23 51 95 -2 44 -3 148 -2 230 1 150 0 382
-4 700 -1 94 1 291 6 439 8 266 9 268 32 289 14 12 22 27 19 35 -3 7 1 22 9
33 12 17 15 18 26 4 7 -8 19 -15 26 -15 9 0 14 -11 14 -30 0 -35 71 -120 100
-120 9 0 29 -9 44 -21 22 -17 26 -28 26 -73 l0 -52 -63 4 c-57 4 -66 1 -95
-23 -36 -31 -62 -74 -62 -104 0 -23 64 -71 94 -71 11 0 28 8 38 17 17 15 21
15 53 0 31 -15 34 -20 29 -46 -5 -23 0 -37 22 -65 16 -20 37 -39 46 -42 9 -3
18 -17 20 -32 3 -23 7 -27 30 -24 38 4 40 -1 67 -163 8 -46 28 -103 41 -115
10 -9 30 -61 30 -77 0 -9 7 -24 16 -34 9 -10 20 -48 26 -86 5 -37 12 -84 15
-103 7 -46 4 -123 -6 -192 -1 -3 -10 -4 -21 -1 -38 10 -34 -24 9 -78 45 -56
49 -70 26 -89 -23 -19 -18 -37 15 -62 23 -16 30 -30 30 -54 0 -21 11 -46 34
-76 63 -80 74 -88 108 -88 35 0 168 58 194 85 9 8 19 15 22 15 4 0 38 29 75
65 38 36 81 72 98 80 27 14 40 35 21 35 -4 0 -12 10 -17 22 -12 27 -114 88
-147 88 -5 0 -7 8 -4 18 4 12 -4 28 -24 47 -35 33 -39 49 -10 40 16 -5 20 -2
20 17 0 13 4 28 10 34 16 16 0 84 -20 84 -22 0 -65 46 -51 55 16 9 13 23 -6
29 -10 3 -29 22 -42 42 -14 19 -42 45 -63 57 -21 12 -38 27 -38 33 0 7 -7 25
-15 40 -18 35 -19 66 -4 81 7 7 13 36 16 65 2 29 8 63 15 75 9 19 8 26 -5 41
-10 10 -17 23 -17 29 0 15 34 43 52 43 9 0 18 7 22 15 4 10 -3 17 -22 21 -15
3 -32 7 -38 9 -12 3 -12 220 -1 232 9 8 82 -57 96 -85 6 -13 11 -33 11 -46 0
-13 11 -43 24 -67 13 -24 31 -77 41 -117 9 -40 21 -74 25 -77 5 -3 14 -22 21
-43 6 -20 18 -45 27 -54 12 -14 14 -34 8 -98 -3 -44 -9 -86 -12 -95 -4 -9 0
-15 9 -15 20 0 43 -37 57 -91 7 -24 17 -53 23 -64 19 -34 37 -89 37 -114 0
-14 8 -33 17 -43 11 -12 17 -34 16 -60 -2 -33 4 -46 27 -70 33 -32 37 -47 18
-67 -22 -23 32 -3 80 30 23 16 49 29 57 29 8 0 15 6 15 13 0 14 -58 81 -75 88
-13 5 -77 177 -110 294 -12 44 -30 107 -40 140 -9 33 -21 78 -26 100 -5 22
-16 65 -24 95 -36 122 -47 171 -41 177 3 3 18 1 32 -6 15 -6 29 -9 32 -6 8 8
-129 145 -144 145 -7 0 -62 47 -124 105 -61 58 -117 105 -125 105 -7 0 -23 15
-34 33 -23 38 -128 141 -241 236 -102 86 -125 110 -112 123 11 11 94 -42 132
-86 75 -87 104 -116 142 -142 23 -16 53 -39 66 -51 14 -13 30 -23 35 -23 16 0
167 -158 167 -175 0 -8 11 -22 25 -31 13 -9 27 -24 30 -35 4 -13 16 -19 36
-19 26 0 29 3 29 31 0 17 5 39 10 49 8 14 6 54 -6 136 -16 108 -16 121 0 184
9 37 16 81 16 97 0 16 7 52 16 79 9 27 17 55 20 62 2 8 26 -6 66 -38 68 -55
78 -59 78 -32 0 15 -80 119 -109 142 -4 3 -23 29 -44 58 l-38 53 13 59 c11 57
11 60 -15 99 -28 42 -41 48 -67 31 -10 -6 -21 -3 -36 11 -23 22 -41 20 -119
-11 -27 -11 -36 -9 -90 20 -33 17 -106 56 -162 85 -56 29 -108 59 -116 66 -8
8 -46 34 -86 59 -132 83 -296 192 -336 224 -61 49 -135 74 -135 46 0 -5 -12
-10 -27 -10 -22 0 -25 -3 -13 -10 12 -7 9 -14 -18 -41 -41 -41 -42 -74 -2 -97
17 -9 32 -24 35 -33 3 -9 21 -20 39 -23 19 -4 51 -20 72 -37 43 -34 96 -59
126 -59 11 0 36 -13 54 -30 19 -16 40 -28 46 -26 47 15 68 16 68 2 0 -24 29
-39 78 -41 26 -1 58 -5 72 -9 22 -6 25 -4 26 19 3 38 11 41 39 15 32 -30 32
-50 -1 -50 -21 0 -25 -4 -21 -19 3 -11 -1 -22 -9 -25 -20 -8 -8 -30 24 -44 15
-6 65 -32 111 -57 46 -25 90 -45 98 -45 18 0 16 -29 -3 -37 -8 -3 -20 -1 -27
6 -18 18 -47 13 -67 -11 -16 -21 -21 -22 -52 -10 -49 17 -61 15 -88 -13 -13
-14 -29 -25 -36 -25 -7 0 -26 -11 -42 -25 -34 -28 -45 -31 -61 -12 -6 8 -29
20 -51 27 -22 7 -42 21 -45 32 -8 24 -27 23 -50 -2 -10 -11 -26 -20 -37 -20
-13 0 -18 -8 -18 -30 0 -23 -5 -30 -19 -30 -25 0 -44 23 -30 37 6 6 -5 26 -33
59 -24 27 -46 50 -50 52 -7 3 -58 56 -133 137 -16 18 -83 88 -148 157 -65 69
-137 152 -161 184 -24 33 -103 120 -177 195 -170 171 -240 251 -319 363 -35
49 -89 119 -120 155 -31 36 -66 82 -77 101 -12 20 -33 48 -46 64 -13 15 -39
52 -58 82 -19 30 -53 83 -76 117 -59 87 -113 182 -144 252 -14 33 -40 84 -58
114 -34 57 -36 91 -4 70 22 -14 90 -98 120 -147 24 -40 101 -122 115 -122 4 0
8 -6 8 -13 0 -13 47 -73 91 -117 14 -14 38 -44 52 -67 15 -23 39 -50 54 -60
35 -22 86 -75 138 -141 30 -40 44 -50 59 -46 16 5 18 2 12 -19 -5 -21 -2 -25
26 -31 17 -3 33 -5 34 -3 2 2 -30 39 -71 82 -41 43 -75 82 -75 86 0 4 -15 14
-34 23 -39 19 -60 41 -51 56 6 10 -90 110 -107 110 -5 0 -7 4 -4 8 3 5 -24 40
-59 78 -36 38 -65 70 -65 71 0 2 -20 24 -45 50 -89 96 -223 271 -293 387 -18
30 -42 56 -53 59 -15 4 -19 14 -19 44 0 21 -7 49 -16 62 -20 28 -25 89 -11
113 8 12 7 21 -2 32 -20 24 -47 19 -69 -11 l-19 -26 -44 20 c-44 21 -44 21
-16 28 32 9 35 30 11 113 -18 68 -51 132 -76 150 -16 11 -18 29 -18 131 0 102
3 120 18 134 20 18 67 23 76 9 11 -17 200 -22 251 -6 35 10 58 12 79 5 17 -5
78 -12 136 -15 113 -7 132 -15 112 -46 -7 -11 -12 -53 -12 -95 0 -61 5 -85 24
-123 52 -99 154 -173 261 -191 103 -16 99 7 -15 83 -46 31 -70 54 -70 67 0 20
19 25 36 11 5 -5 28 -14 51 -22 49 -15 207 -10 225 8 21 21 -5 32 -103 43 -98
11 -101 12 -216 94 -23 17 -46 40 -52 53 -28 60 0 131 68 167 47 26 76 71 65
99 -3 8 -40 24 -82 37 -80 25 -159 29 -357 17 -45 -3 -83 0 -86 5 -4 5 -68 11
-143 12 -119 3 -139 6 -165 24 -16 12 -33 21 -38 21 -5 0 -23 13 -40 29 l-31
28 5 85 c7 104 -3 198 -21 198 -10 0 -14 -41 -19 -164z m116 -1313 c11 -25 19
-80 23 -163 8 -197 20 -299 36 -318 15 -16 34 -74 45 -137 3 -16 14 -41 24
-55 10 -14 26 -47 35 -75 9 -27 22 -57 29 -65 7 -8 16 -26 19 -40 20 -75 31
-100 46 -105 16 -5 160 -274 160 -299 0 -7 11 -23 25 -36 14 -13 25 -29 25
-35 0 -7 17 -50 39 -96 45 -99 66 -180 48 -191 -19 -12 -44 -9 -57 7 -20 24
-57 18 -77 -12 -10 -15 -39 -49 -65 -76 -53 -55 -55 -62 -33 -94 14 -20 13
-25 -16 -69 -25 -36 -32 -57 -31 -92 1 -69 17 -79 92 -58 39 11 72 15 89 10
14 -4 45 -8 69 -9 37 -2 52 4 102 41 44 32 59 50 62 71 3 25 7 21 36 -39 17
-37 32 -70 32 -74 0 -4 14 -30 31 -57 17 -28 27 -53 23 -54 -39 -14 -59 -32
-62 -54 -2 -21 3 -29 27 -39 20 -8 32 -21 36 -41 8 -37 51 -41 64 -6 9 21 9
21 16 2 5 -11 19 -35 32 -52 l24 -33 -70 0 -71 0 0 29 c0 21 -6 32 -21 36 -25
8 -36 -1 -41 -34 -4 -32 -29 -41 -26 -9 3 18 -2 24 -24 26 -16 2 -28 10 -28
17 0 19 -18 28 -58 30 -27 1 -37 -4 -45 -22 -6 -13 -15 -23 -21 -23 -7 0 -36
-16 -66 -35 -52 -33 -59 -35 -145 -35 -49 0 -107 -4 -128 -9 -32 -8 -39 -6
-44 7 -26 84 -46 92 -76 29 -10 -22 -28 -42 -44 -48 -32 -12 -271 -1 -279 13
-4 5 2 30 11 55 16 42 16 46 1 55 -9 5 -16 16 -16 23 0 18 17 20 22 4 7 -20
104 -29 142 -14 39 16 46 30 46 90 0 47 -15 59 -57 43 -24 -8 -25 -7 -27 47
-1 24 -5 30 -22 28 -31 -3 -61 32 -45 51 7 8 10 23 7 34 -7 22 20 81 40 89 9
3 14 20 14 44 0 52 36 130 79 170 14 14 21 32 21 59 0 21 5 42 10 45 17 10 11
44 -9 54 -30 16 -35 57 -11 91 11 15 20 37 20 48 0 12 5 24 11 28 7 4 7 9 1
13 -5 3 -12 16 -16 29 -6 17 -3 24 16 31 20 8 21 10 6 16 -20 8 -26 75 -7 75
7 0 9 11 6 29 -3 16 2 56 13 92 11 34 17 65 15 67 -2 3 5 12 16 21 20 16 20
16 1 36 -18 18 -18 23 -5 48 11 22 12 32 3 42 -8 10 -10 32 -5 64 4 32 3 51
-5 56 -7 5 -9 24 -5 60 6 43 4 53 -9 58 -9 4 -16 13 -16 21 0 7 -7 17 -16 20
-10 4 -13 13 -9 26 3 11 -1 35 -11 55 -10 23 -14 46 -10 67 3 18 1 37 -6 45
-8 10 -8 17 0 25 15 15 16 83 2 109 -6 11 -12 57 -14 102 -2 51 -10 95 -20
115 -22 42 -21 42 22 42 35 0 41 -4 55 -37z m-293 -154 c0 -49 -27 -149 -41
-149 -5 0 -9 -8 -9 -17 0 -19 -23 -90 -39 -121 -5 -9 -15 -30 -22 -47 -8 -16
-20 -34 -26 -38 -7 -4 -13 -20 -13 -35 0 -16 -4 -32 -9 -38 -5 -5 -11 -27 -13
-49 -2 -27 -7 -39 -16 -37 -10 2 -12 -8 -6 -43 7 -50 -5 -75 -38 -75 -16 0
-19 -5 -14 -25 5 -21 -1 -42 -22 -75 -2 -2 -7 2 -12 10 -7 12 -12 12 -22 2 -9
-9 -8 -14 5 -24 16 -12 16 -15 -2 -51 -10 -20 -22 -69 -26 -108 -4 -39 -13
-83 -21 -98 -8 -14 -14 -34 -14 -43 0 -9 -4 -20 -10 -23 -5 -3 -10 -14 -10
-24 0 -10 -10 -23 -23 -30 -12 -7 -33 -32 -47 -57 -18 -35 -28 -44 -43 -40
-13 3 -17 0 -13 -10 3 -8 0 -23 -6 -34 -10 -16 -20 -18 -55 -13 -35 5 -44 2
-49 -12 -5 -13 1 -25 19 -39 31 -25 34 -36 11 -36 -9 0 -14 -6 -12 -12 3 -7
-4 -17 -15 -23 -23 -11 -63 -62 -56 -70 3 -3 15 4 27 15 24 22 27 20 13 -8 -5
-9 -16 -33 -25 -52 -9 -19 -36 -60 -61 -90 -24 -30 -44 -59 -45 -63 0 -4 -22
-38 -50 -74 -27 -36 -50 -69 -50 -72 0 -4 -13 -14 -29 -24 -16 -10 -42 -31
-58 -49 -15 -17 -42 -45 -59 -62 -17 -17 -34 -39 -38 -49 -3 -10 -20 -24 -36
-30 -17 -6 -30 -15 -30 -19 0 -10 -75 -48 -95 -48 -8 0 -15 -9 -15 -20 0 -22
-15 -27 -26 -8 -4 6 1 17 10 24 15 10 15 15 4 33 -7 12 -23 21 -35 21 -27 0
-47 33 -39 65 4 14 -1 28 -13 39 -18 16 -19 15 -25 -21 -3 -21 -6 -46 -7 -55
0 -20 -3 -21 -36 -12 -14 4 -23 14 -23 25 0 26 -21 24 -27 -2 -6 -20 -10 -21
-91 -14 -71 6 -91 12 -118 33 -26 21 -30 29 -21 42 8 13 5 28 -10 59 -25 51
-18 94 16 99 12 2 25 10 28 18 3 8 14 14 26 14 11 0 32 10 45 23 17 15 26 18
29 10 7 -19 22 -16 23 5 3 70 10 87 24 64 8 -14 70 -2 84 16 6 9 12 26 12 39
0 13 5 23 11 23 6 0 32 17 57 38 26 20 58 46 71 57 14 11 37 32 51 48 14 15
43 46 64 69 33 33 40 49 41 82 1 38 3 41 36 47 25 6 36 4 42 -7 11 -20 27 -17
27 4 0 27 9 32 36 20 21 -10 27 -8 40 10 9 13 26 22 40 22 13 0 27 7 30 15 4
8 12 15 18 15 28 0 66 26 66 45 0 12 6 27 13 34 10 10 8 15 -6 25 -13 11 -15
19 -8 37 5 13 10 18 10 11 1 -18 81 -6 97 14 6 8 24 14 39 14 22 0 26 4 22 19
-5 20 10 31 43 31 10 0 21 8 24 18 12 33 31 58 74 96 25 23 41 45 38 53 -3 8
1 16 9 19 8 4 15 12 15 19 0 8 9 17 20 20 29 9 39 33 43 106 3 35 10 65 16 67
6 2 11 12 11 23 0 11 7 19 16 19 13 0 15 7 11 35 -4 25 -1 40 10 51 15 14 17
14 25 0 5 -9 16 -16 23 -16 20 0 19 29 0 36 -23 9 -18 40 10 58 14 9 32 28 41
42 16 23 16 26 -2 39 -17 13 -17 14 -2 15 9 0 20 10 24 23 3 12 14 30 22 40 9
10 15 31 14 46 -2 16 5 36 18 51 11 13 23 35 27 49 5 25 40 69 56 70 4 1 7
-17 7 -40z m-210 -299 c0 -5 -2 -10 -4 -10 -3 0 -8 5 -11 10 -3 6 -1 10 4 10
6 0 11 -4 11 -10z m-730 -770 c0 -5 -4 -10 -10 -10 -5 0 -10 5 -10 10 0 6 5
10 10 10 6 0 10 -4 10 -10z m40 -10 c0 -5 -2 -10 -4 -10 -3 0 -8 5 -11 10 -3
6 -1 10 4 10 6 0 11 -4 11 -10z m120 0 c0 -5 -7 -10 -15 -10 -10 0 -15 -11
-16 -32 -1 -22 -3 -26 -6 -13 -3 11 -9 25 -14 32 -9 10 4 18 49 32 1 1 2 -3 2
-9z m-193 -72 c-3 -8 -6 -5 -6 6 -1 11 2 17 5 13 3 -3 4 -12 1 -19z m-127
-137 c0 -6 -4 -13 -10 -16 -5 -3 -10 1 -10 9 0 9 5 16 10 16 6 0 10 -4 10 -9z
m2020 -273 c0 -7 3 -23 6 -35 7 -27 -11 -30 -40 -8 -19 14 -19 15 -1 35 21 23
35 26 35 8z m-2617 -225 c-7 -2 -19 -2 -25 0 -7 3 -2 5 12 5 14 0 19 -2 13 -5z
m2882 -262 c3 -5 1 -12 -5 -16 -5 -3 -10 1 -10 9 0 18 6 21 15 7z m-2710 -41
c3 -5 15 -10 26 -10 10 0 19 -4 19 -10 0 -11 -49 -14 -74 -4 -9 3 -16 12 -16
20 0 16 36 19 45 4z m4049 -187 c4 -9 5 -18 2 -20 -4 -5 -76 62 -76 71 0 11
68 -36 74 -51z m-1127 -122 c18 -43 18 -48 4 -39 -28 17 -54 88 -33 88 4 0 17
-22 29 -49z m-2750 -73 c-3 -7 -5 -2 -5 12 0 14 2 19 5 13 2 -7 2 -19 0 -25z
m1610 -34 c1 -5 -2 -16 -7 -24 -9 -13 -11 -13 -19 -1 -5 8 -7 20 -4 28 6 15
25 13 30 -3z m1203 -27 c0 -9 76 -178 126 -283 19 -39 34 -83 34 -97 0 -15 4
-27 9 -27 10 0 31 -53 31 -78 0 -12 -4 -12 -20 3 -11 10 -20 27 -20 37 0 10
-21 63 -47 116 -27 54 -53 111 -59 127 -6 17 -20 55 -32 85 -12 30 -24 67 -28
83 -3 15 -10 27 -15 27 -5 0 -9 12 -9 27 0 26 1 26 15 7 8 -10 15 -23 15 -27z
m-1227 -74 c-9 -73 -29 -88 -53 -43 -9 16 -6 24 15 42 14 12 25 28 25 35 0 7
4 13 10 13 6 0 7 -19 3 -47z m-2366 -85 c-3 -8 -6 -5 -6 6 -1 11 2 17 5 13 3
-3 4 -12 1 -19z m751 4 c2 -7 -3 -12 -12 -12 -9 0 -16 7 -16 16 0 17 22 14 28
-4z m2167 -112 c48 -116 94 -260 95 -293 0 -24 38 -163 54 -202 19 -43 36 -99
36 -115 0 -8 8 -23 19 -34 10 -12 31 -58 46 -103 15 -46 34 -88 41 -94 8 -6
14 -16 14 -21 0 -5 16 -34 36 -64 47 -71 42 -109 -6 -41 -45 63 -63 59 -70
-15 -5 -55 -19 -90 -21 -52 -3 47 -9 80 -24 128 -9 29 -15 56 -14 61 1 6 -1
17 -4 25 -11 27 -45 174 -51 221 -5 42 -21 89 -47 142 -26 50 -50 124 -59 182
-6 36 -21 89 -34 118 -13 28 -29 75 -36 102 -6 28 -13 55 -14 60 -2 6 -8 23
-14 38 -14 33 -16 96 -3 82 4 -6 29 -62 56 -125z m-2961 55 c-4 -8 -8 -15 -10
-15 -2 0 -4 7 -4 15 0 8 4 15 10 15 5 0 7 -7 4 -15z m2371 -42 c-3 -21 -11
-42 -16 -47 -5 -6 -9 -18 -9 -27 0 -9 -7 -22 -15 -29 -8 -7 -15 -26 -15 -43 0
-35 -20 -97 -31 -97 -13 0 -59 -46 -59 -59 0 -6 -5 -11 -10 -11 -6 0 -22 -24
-36 -54 -14 -29 -35 -59 -47 -65 -12 -7 -36 -20 -53 -29 -17 -9 -46 -34 -65
-56 -68 -77 -169 -168 -207 -187 -21 -11 -47 -27 -58 -37 -30 -28 -136 -90
-166 -97 -39 -10 -91 11 -117 45 -12 17 -27 30 -34 30 -11 0 -80 70 -105 105
-4 6 -20 16 -35 23 -15 6 -30 19 -34 28 -11 30 11 36 103 24 128 -16 133 -17
140 -45 7 -28 26 -31 64 -12 14 7 50 21 80 32 30 10 74 26 97 36 23 10 60 23
81 27 21 5 46 13 56 19 31 17 301 288 316 317 8 16 30 44 49 63 19 19 40 45
46 56 46 86 73 127 82 127 3 0 2 -17 -2 -37z m-1205 -7 c0 -8 -5 -18 -11 -21
-7 -5 -5 -13 5 -24 14 -15 13 -22 -1 -66 -24 -77 -57 -140 -73 -140 -19 0 -17
23 10 115 12 41 24 88 26 103 2 16 6 33 9 38 9 14 35 11 35 -5z m887 -23 c2
-6 -9 -24 -25 -40 -16 -16 -37 -44 -47 -63 -22 -43 -75 -111 -165 -209 -78
-86 -99 -113 -106 -134 -9 -31 -34 -57 -54 -57 -10 0 -32 -10 -51 -23 -59 -40
-209 -30 -209 14 0 5 8 12 18 16 9 3 35 19 57 34 22 15 57 33 78 40 25 9 51
31 80 67 23 30 67 78 98 109 31 30 59 66 62 81 7 31 92 124 136 147 32 16 99
34 115 31 6 -1 11 -7 13 -13z m-1245 -45 c9 -25 -15 -78 -34 -78 -12 0 -18 -7
-18 -21 0 -12 -5 -19 -12 -16 -7 2 -13 10 -13 18 0 8 -7 19 -15 26 -12 9 -12
14 -3 24 10 10 16 9 29 -2 16 -13 17 -12 11 9 -3 13 -3 30 0 38 6 17 50 19 55
2z m-172 -129 c0 -6 -4 -7 -10 -4 -5 3 -10 11 -10 16 0 6 5 7 10 4 6 -3 10
-11 10 -16z m3240 -114 c6 -19 10 -41 8 -47 -6 -16 -38 49 -38 74 0 28 17 13
30 -27z m-2000 -26 c0 -5 -4 -9 -10 -9 -5 0 -10 7 -10 16 0 8 5 12 10 9 6 -3
10 -10 10 -16z m2050 -89 c0 -10 12 -38 26 -64 14 -25 23 -50 20 -55 -4 -5 -1
-22 5 -38 20 -51 28 -83 20 -83 -4 0 -13 18 -20 40 -6 21 -16 42 -22 46 -13 7
-26 42 -45 112 -19 71 -19 88 1 72 8 -7 15 -20 15 -30z m-2130 5 c0 -15 -6
-25 -14 -25 -11 0 -12 5 -3 25 15 31 17 31 17 0z m-520 -86 c0 -20 -28 -7 -39
18 -9 21 -9 28 0 34 12 7 39 -30 39 -52z m-93 45 c24 -5 29 -10 26 -28 -4 -18
-10 -22 -34 -18 -29 4 -55 33 -42 46 8 7 13 8 50 0z m-94 -54 c-5 -20 -43 -29
-43 -10 0 6 7 10 15 10 8 0 15 5 15 10 0 6 4 10 9 10 5 0 7 -9 4 -20z m157
-20 c0 -5 -4 -10 -10 -10 -5 0 -10 5 -10 10 0 6 5 10 10 10 6 0 10 -4 10 -10z
m-40 -26 c0 -2 -7 -4 -15 -4 -8 0 -15 4 -15 10 0 5 7 7 15 4 8 -4 15 -8 15
-10z m-1425 -192 c-9 -9 -35 8 -35 23 0 13 3 12 20 -2 11 -9 17 -19 15 -21z
m1106 -15 c-6 -6 -11 -20 -11 -30 0 -11 -9 -47 -20 -81 -10 -33 -27 -87 -36
-118 -17 -60 -35 -84 -54 -73 -8 5 -6 14 4 31 9 13 16 32 16 42 0 10 4 22 8
27 5 6 17 36 26 67 10 32 22 60 27 64 5 3 9 12 9 21 0 28 35 98 38 78 2 -9 -1
-22 -7 -28z m-1099 -32 c-5 -27 18 -73 39 -78 23 -6 26 -37 4 -37 -9 0 -19 8
-22 17 -8 20 -40 53 -52 53 -12 0 -27 20 -35 46 -6 19 -3 21 31 18 30 -1 37
-6 35 -19z m4318 -74 c6 -16 10 -42 8 -57 -4 -27 -5 -26 -16 14 -7 24 -16 50
-19 58 -10 28 15 14 27 -15z m-4250 -97 c0 -8 -4 -12 -10 -9 -5 3 -10 10 -10
16 0 5 5 9 10 9 6 0 10 -7 10 -16z m-79 -44 c10 0 19 -5 19 -10 0 -6 11 -16
25 -22 14 -6 25 -17 25 -23 0 -16 -52 -7 -63 11 -4 8 -18 14 -30 14 -29 0 -47
18 -47 45 0 34 13 38 33 11 10 -15 27 -26 38 -26z m-651 25 c-7 -8 -16 -15
-21 -15 -5 0 -9 7 -9 15 0 9 9 15 21 15 18 0 19 -2 9 -15z m2020 7 c0 -4 17
-30 38 -59 20 -28 45 -63 54 -79 10 -16 22 -36 27 -44 61 -96 73 -125 68 -164
-3 -23 -1 -50 3 -61 7 -17 9 -15 9 12 1 43 18 83 34 83 23 0 31 88 11 118 -10
16 -13 27 -6 34 13 13 52 0 52 -18 0 -8 6 -14 13 -14 6 0 17 -11 24 -25 9 -20
8 -25 -2 -25 -20 0 -26 -15 -16 -41 5 -15 4 -30 -2 -41 -8 -12 -8 -24 0 -40
31 -65 40 -155 18 -170 -6 -5 -5 -12 3 -20 6 -6 12 -24 12 -38 0 -20 8 -30 35
-43 l36 -17 -31 -45 c-17 -24 -53 -64 -80 -87 -35 -30 -50 -51 -50 -68 0 -18
-3 -21 -9 -11 -16 25 -31 0 -32 -52 -1 -73 -26 -113 -69 -110 -47 2 -58 18
-32 46 12 13 22 27 22 32 0 5 7 16 15 25 23 25 21 131 -4 231 -11 48 -21 97
-21 110 0 13 -7 36 -15 52 -20 38 -65 208 -65 245 0 17 -4 33 -9 36 -4 3 -11
22 -14 43 -3 21 -13 69 -22 108 -18 82 -19 105 -5 105 6 0 10 -3 10 -8z
m-1750 -37 c10 -12 10 -15 -4 -15 -9 0 -16 7 -16 15 0 8 2 15 4 15 2 0 9 -7
16 -15z m-323 -37 c-3 -8 -6 -5 -6 6 -1 11 2 17 5 13 3 -3 4 -12 1 -19z m4173
-64 c11 -25 20 -57 20 -70 0 -13 12 -67 26 -120 17 -66 22 -100 15 -107 -14
-14 -26 20 -46 123 -9 47 -20 96 -25 110 -10 29 -20 110 -14 110 3 0 14 -21
24 -46z m-933 -96 c-3 -8 -6 -5 -6 6 -1 11 2 17 5 13 3 -3 4 -12 1 -19z m1940
-115 c-3 -10 -5 -4 -5 12 0 17 2 24 5 18 2 -7 2 -21 0 -30z m-3972 7 c-3 -5
-10 -10 -16 -10 -5 0 -9 5 -9 10 0 6 7 10 16 10 8 0 12 -4 9 -10z m2032 -62
c-3 -7 -5 -2 -5 12 0 14 2 19 5 13 2 -7 2 -19 0 -25z m-1957 -8 c0 -5 -6 -10
-14 -10 -8 0 -18 5 -21 10 -3 6 3 10 14 10 12 0 21 -4 21 -10z m1944 -182
c-10 -150 -6 -258 12 -285 33 -52 2 -59 -38 -9 -31 39 -32 59 -2 271 17 122
20 135 30 135 4 0 3 -51 -2 -112z m-2874 43 c0 -4 -11 -6 -25 -3 -14 2 -25 6
-25 8 0 2 11 4 25 4 14 0 25 -4 25 -9z m800 -41 c0 -5 -7 -10 -15 -10 -8 0
-15 5 -15 10 0 6 7 10 15 10 8 0 15 -4 15 -10z m-935 -30 c-3 -5 -1 -19 5 -30
9 -16 8 -20 -5 -20 -8 0 -15 6 -15 14 0 8 -3 21 -6 30 -4 11 -1 16 11 16 9 0
13 -4 10 -10z m1495 -44 c0 -3 -4 -8 -10 -11 -5 -3 -10 -1 -10 4 0 6 5 11 10
11 6 0 10 -2 10 -4z m-1502 -47 c9 -14 20 -19 33 -16 24 7 25 -9 1 -22 -24
-13 -62 12 -62 40 0 25 12 24 28 -2z m86 -74 c6 -17 46 -21 46 -5 0 6 11 10
25 10 15 0 23 -5 20 -12 -7 -19 30 -62 44 -53 7 4 11 16 8 26 -3 12 0 19 10
19 10 0 13 -6 9 -16 -9 -23 11 -44 41 -44 19 0 24 -4 19 -16 -3 -9 -6 -18 -6
-20 0 -2 -11 -4 -25 -4 -20 0 -25 -5 -25 -26 0 -25 -2 -26 -40 -20 -26 4 -40
2 -40 -5 0 -6 -13 -1 -30 11 -19 13 -30 30 -30 45 0 13 -5 27 -10 30 -6 4 -8
16 -4 27 4 15 2 19 -13 17 -25 -5 -43 9 -43 32 0 23 35 26 44 4z m1418 -27
c39 -44 36 -58 -11 -58 -22 0 -52 -5 -68 -11 -24 -9 -30 -7 -42 10 -7 12 -24
21 -38 21 -19 0 -24 4 -21 22 3 19 10 22 63 25 33 2 64 8 69 13 14 14 16 13
48 -22z m-622 -20 c0 -9 -34 -28 -49 -28 -6 0 -8 7 -6 15 3 8 7 22 10 30 4 13
8 13 25 3 11 -7 20 -16 20 -20z m1345 2 c3 -5 23 -10 43 -10 44 0 60 -9 76
-41 7 -15 24 -26 46 -30 43 -9 64 6 36 27 -19 13 -19 14 6 14 17 0 33 -10 46
-27 18 -25 21 -26 72 -16 50 10 55 9 97 -19 24 -17 50 -27 59 -24 9 3 26 3 40
0 31 -8 33 -51 3 -82 -18 -20 -19 -26 -7 -52 10 -23 20 -30 40 -30 28 0 32 -6
29 -46 -2 -15 5 -23 23 -28 28 -7 36 -26 11 -26 -9 0 -35 9 -57 20 -50 24 -83
26 -75 6 5 -12 -2 -13 -31 -9 -36 6 -36 5 -21 -13 9 -10 19 -27 22 -36 4 -10
11 -18 17 -18 5 0 10 -9 10 -20 0 -20 -14 -27 -24 -11 -3 5 -24 9 -47 9 -41 1
-79 23 -79 47 0 18 -57 55 -85 55 -22 0 -25 -4 -25 -34 0 -21 6 -36 15 -40 8
-3 15 -15 15 -26 0 -17 -5 -21 -27 -18 -26 3 -28 1 -28 -37 l0 -40 63 -3 c59
-3 80 -16 47 -28 -9 -4 -15 -11 -14 -18 3 -23 -1 -36 -12 -36 -6 0 -9 7 -5 15
4 11 -1 15 -18 15 -13 0 -33 9 -46 20 -13 11 -27 20 -32 20 -4 0 -8 -9 -8 -20
0 -11 -6 -20 -13 -20 -25 0 -27 13 -6 36 11 12 19 30 17 41 -3 14 -12 18 -46
16 -23 -1 -42 2 -42 8 0 5 -12 9 -27 10 -16 0 -22 3 -15 6 19 8 14 23 -8 23
-11 0 -20 -3 -20 -8 0 -13 -39 -32 -55 -26 -8 3 -15 16 -15 28 0 51 -11 66
-47 66 -35 0 -72 -15 -85 -34 -5 -7 -8 -5 -8 6 0 9 -9 20 -20 23 -24 8 -27 45
-4 45 10 0 14 7 12 23 -2 12 -10 22 -18 22 -22 0 -26 10 -22 53 3 35 6 39 33
39 37 0 80 48 104 117 10 28 28 60 40 71 12 11 25 28 28 38 7 19 32 23 42 7z
m1165 -19 c0 -10 -30 -24 -37 -17 -3 3 -2 9 2 15 8 13 35 15 35 2z m-3030 -31
c0 -5 -2 -10 -4 -10 -3 0 -8 5 -11 10 -3 6 -1 10 4 10 6 0 11 -4 11 -10z m0
-39 c0 -10 -36 -28 -47 -24 -24 10 -13 28 17 28 17 0 30 -2 30 -4z m646 -5 c1
0 4 -13 8 -28 4 -20 2 -28 -6 -28 -13 0 -68 53 -68 65 0 5 61 -3 66 -9z m762
-22 c45 -31 13 -48 -33 -18 -25 16 -25 34 -2 34 7 0 23 -7 35 -16z m-1478 -24
c0 -5 -5 -10 -11 -10 -5 0 -7 5 -4 10 3 6 8 10 11 10 2 0 4 -4 4 -10z m3650
-3 c0 -14 -20 -37 -32 -37 -4 0 -8 11 -8 25 0 18 5 25 20 25 11 0 20 -6 20
-13z m-840 -42 c0 -8 -6 -15 -14 -15 -20 0 -29 17 -14 23 22 9 28 7 28 -8z
m726 -61 c-8 -21 -20 -17 -32 10 -7 16 -8 30 -1 41 9 16 11 16 24 -9 8 -15 12
-34 9 -42z m-196 11 c0 -3 -9 -14 -20 -25 l-20 -20 0 25 c0 18 5 25 20 25 11
0 20 -2 20 -5z m117 -35 c19 -23 16 -27 -23 -35 -29 -5 -40 -2 -56 14 -10 12
-16 26 -13 31 9 15 78 8 92 -10z m-3529 -180 c3 -21 2 -22 -12 -11 -19 16 -21
44 -3 39 6 -3 14 -15 15 -28z m3546 -19 c10 -15 -22 -20 -34 -5 -10 11 -9 14
8 14 12 0 23 -4 26 -9z m-1514 -49 c0 -5 -7 -9 -15 -9 -8 0 -15 4 -15 9 0 4 7
8 15 8 8 0 15 -4 15 -8z m401 -62 c-25 -22 -46 -26 -56 -11 -7 13 24 30 55 30
l25 0 -24 -19z m49 -5 c0 -8 -4 -15 -10 -15 -5 0 -7 7 -4 15 4 8 8 15 10 15 2
0 4 -7 4 -15z m-507 -2 c2 -5 1 -20 -2 -35 -4 -20 -10 -25 -20 -19 -9 6 -11
18 -7 35 6 25 21 34 29 19z m85 -5 c6 -8 6 -22 1 -37 -8 -19 -12 -21 -24 -11
-22 18 -18 60 5 60 4 0 12 -6 18 -12z m56 3 c3 -5 -1 -14 -9 -21 -13 -10 -15
-9 -15 9 0 21 14 28 24 12z m1476 -1 c0 -5 -4 -10 -10 -10 -5 0 -10 5 -10 10
0 6 5 10 10 10 6 0 10 -4 10 -10z m307 -76 c-3 -3 -12 -4 -19 -1 -8 3 -5 6 6
6 11 1 17 -2 13 -5z"/>
<path d="M5362 5484 c-38 -27 -20 -94 26 -94 29 0 62 30 62 55 0 23 -32 55
-55 55 -6 0 -21 -7 -33 -16z"/>
<path d="M5395 4910 c-4 -7 -3 -16 3 -22 14 -14 45 -2 40 15 -6 16 -34 21 -43
7z"/>
<path d="M5373 4780 c-3 -11 -13 -20 -23 -20 -19 0 -34 -25 -24 -41 8 -13 72
-11 80 3 4 7 0 16 -8 22 -15 9 -15 11 -1 21 9 7 13 17 9 23 -11 18 -27 14 -33
-8z"/>
<path d="M5533 4684 c-8 -23 11 -79 27 -79 19 0 26 75 8 87 -19 12 -28 10 -35
-8z"/>
<path d="M4521 5764 c0 -11 3 -14 6 -6 3 7 2 16 -1 19 -3 4 -6 -2 -5 -13z"/>
<path d="M4492 5696 c-7 -16 -8 -26 -1 -26 12 0 22 25 17 41 -2 6 -9 0 -16
-15z"/>
<path d="M4190 5685 c0 -8 5 -15 10 -15 6 0 10 7 10 15 0 8 -4 15 -10 15 -5 0
-10 -7 -10 -15z"/>
<path d="M4465 5630 c-3 -5 -1 -10 4 -10 6 0 11 5 11 10 0 6 -2 10 -4 10 -3 0
-8 -4 -11 -10z"/>
<path d="M4101 2434 c0 -11 3 -14 6 -6 3 7 2 16 -1 19 -3 4 -6 -2 -5 -13z"/>
<path d="M4100 2218 c0 -15 5 -30 10 -33 13 -8 13 25 0 45 -8 12 -10 9 -10
-12z"/>
<path d="M2170 2101 c0 -13 26 -32 33 -24 14 13 6 33 -13 33 -11 0 -20 -4 -20
-9z"/>
<path d="M4160 2080 c-28 -28 -25 -58 9 -77 16 -9 37 -30 47 -45 11 -15 22
-28 27 -28 11 0 9 28 -3 35 -5 3 -10 19 -10 35 0 32 -29 100 -42 100 -4 0 -17
-9 -28 -20z"/>
<path d="M4590 2040 c0 -5 4 -10 9 -10 6 0 13 5 16 10 3 6 -1 10 -9 10 -9 0
-16 -4 -16 -10z"/>
<path d="M4300 2025 c7 -8 17 -12 22 -9 6 4 5 10 -3 15 -22 14 -33 10 -19 -6z"/>
<path d="M4430 1886 c0 -18 17 -29 30 -21 8 5 7 11 -1 21 -15 18 -29 18 -29 0z"/>
<path d="M4630 1865 c0 -16 27 -32 37 -21 7 7 -16 36 -28 36 -5 0 -9 -7 -9
-15z"/>
<path d="M4570 1850 c0 -6 7 -13 15 -17 24 -9 27 1 5 15 -13 8 -20 8 -20 2z"/>
<path d="M4692 1830 c0 -14 2 -19 5 -12 2 6 2 18 0 25 -3 6 -5 1 -5 -13z"/>
<path d="M4511 8220 c-16 -9 -6 -30 15 -30 15 0 20 25 6 34 -4 2 -14 1 -21 -4z"/>
<path d="M4718 7133 c7 -3 16 -2 19 1 4 3 -2 6 -13 5 -11 0 -14 -3 -6 -6z"/>
<path d="M4435 7043 c-11 -3 -24 -9 -29 -14 -6 -5 -22 -9 -37 -9 -32 0 -79
-35 -79 -59 0 -10 9 -26 20 -36 11 -10 20 -26 20 -36 0 -21 28 -29 52 -15 12
7 31 7 63 -2 70 -19 89 -16 81 11 -3 12 -9 42 -12 67 -4 25 -12 50 -18 55 -7
6 -15 18 -19 28 -7 18 -8 18 -42 10z"/>
<path d="M8455 6637 c-13 -10 -16 -21 -11 -41 5 -22 11 -27 34 -24 21 2 28 9
30 32 5 41 -20 56 -53 33z"/>
<path d="M8220 6545 c-20 -24 -8 -50 24 -50 39 0 58 31 32 51 -25 18 -40 18
-56 -1z"/>
<path d="M6275 6449 c-17 -5 -44 -22 -60 -39 -23 -24 -29 -40 -31 -82 -2 -28
2 -60 7 -70 13 -24 50 -23 77 2 22 21 52 27 52 10 0 -22 38 -8 68 26 46 52 46
52 7 68 -27 12 -35 21 -35 40 0 34 -43 56 -85 45z"/>
<path d="M6285 5930 c-7 -12 28 -46 63 -60 12 -5 27 -21 34 -35 12 -27 38 -34
38 -11 0 7 -19 26 -42 41 -22 15 -51 38 -64 52 -14 15 -25 20 -29 13z"/>
<path d="M7133 5928 c-28 -13 -29 -29 -4 -59 18 -22 19 -22 45 -6 31 21 34 52
7 67 -23 12 -20 12 -48 -2z"/>
<path d="M6882 5898 c-7 -7 -12 -22 -12 -33 0 -13 -10 -26 -24 -33 -15 -7 -29
-27 -40 -57 -17 -52 -14 -65 14 -65 22 0 40 -28 32 -49 -2 -8 6 -22 18 -31 19
-14 23 -27 23 -64 0 -44 2 -47 23 -42 12 3 35 1 49 -4 36 -14 90 2 127 36 25
25 28 35 28 89 0 33 -5 66 -11 72 -20 20 22 33 69 20 33 -9 45 -8 54 2 19 18
-42 71 -82 71 -16 0 -31 4 -35 9 -9 15 -96 61 -114 61 -10 0 -26 7 -37 15 -23
18 -66 19 -82 3z"/>
<path d="M6471 5767 c-12 -15 -5 -27 16 -27 7 0 13 9 13 20 0 23 -13 26 -29 7z"/>
<path d="M6566 5685 c-4 -12 -1 -16 14 -13 24 3 28 22 7 26 -8 2 -17 -4 -21
-13z"/>
<path d="M6610 5635 c0 -17 48 -75 66 -79 11 -3 26 -16 33 -28 6 -13 24 -31
39 -40 54 -35 66 -43 89 -65 23 -22 53 -31 53 -15 0 4 -23 25 -51 47 -29 22
-61 50 -72 62 -10 12 -32 27 -48 33 -16 7 -31 20 -34 29 -3 10 -17 24 -30 31
-14 7 -25 17 -25 22 0 4 -4 8 -10 8 -5 0 -10 -2 -10 -5z"/>
<path d="M8639 5548 c-1 -7 0 -21 1 -32 1 -10 -8 -28 -20 -41 -27 -28 -19 -45
20 -45 38 0 60 32 60 87 0 41 -1 43 -30 43 -17 0 -31 -6 -31 -12z"/>
<path d="M6935 5430 c3 -5 8 -10 11 -10 2 0 4 5 4 10 0 6 -5 10 -11 10 -5 0
-7 -4 -4 -10z"/>
<path d="M2805 5362 c-6 -4 -28 -14 -50 -21 -22 -8 -44 -20 -50 -27 -5 -7 -21
-15 -35 -17 l-25 -4 26 -2 c14 0 43 10 63 24 20 14 43 25 49 25 7 0 17 4 23 9
5 5 18 11 29 14 20 5 20 5 0 6 -12 0 -25 -3 -30 -7z"/>
<path d="M2515 5220 c-8 -13 15 -13 35 0 12 8 11 10 -7 10 -12 0 -25 -4 -28
-10z"/>
<path d="M2405 5192 c-24 -13 -27 -17 -12 -20 10 -2 26 3 35 11 9 9 31 17 47
20 28 4 28 4 -5 4 -19 1 -48 -6 -65 -15z"/>
<path d="M7944 5166 c-15 -12 -17 -18 -8 -33 17 -27 58 -24 62 6 2 13 -2 28
-10 32 -18 12 -21 11 -44 -5z"/>
<path d="M7480 4900 c0 -5 5 -10 10 -10 6 0 10 5 10 10 0 6 -4 10 -10 10 -5 0
-10 -4 -10 -10z"/>
<path d="M8685 4060 c3 -5 8 -10 11 -10 2 0 4 5 4 10 0 6 -5 10 -11 10 -5 0
-7 -4 -4 -10z"/>
<path d="M8710 4033 c0 -5 14 -22 30 -38 22 -22 30 -25 30 -13 0 9 -13 26 -30
38 -16 12 -30 17 -30 13z"/>
<path d="M8860 3884 c0 -9 113 -117 143 -137 28 -18 28 -18 18 2 -11 20 -161
146 -161 135z"/>
<path d="M9059 3693 c18 -31 49 -63 60 -63 17 0 13 7 -26 45 -40 39 -49 43
-34 18z"/>
<path d="M7290 3672 c0 -14 24 -32 43 -32 13 0 17 5 13 16 -3 9 -6 18 -6 20 0
2 -11 4 -25 4 -14 0 -25 -4 -25 -8z"/>
<path d="M9160 3580 c0 -12 28 -25 36 -17 3 3 -4 10 -15 17 -15 7 -21 7 -21 0z"/>
<path d="M9206 3535 c4 -8 21 -22 40 -31 19 -9 34 -21 34 -26 0 -13 26 -38 39
-38 6 0 11 -6 11 -13 0 -16 98 -109 111 -105 11 4 -215 228 -230 228 -6 0 -8
-7 -5 -15z"/>
<path d="M8452 3481 c3 -8 177 -166 232 -211 11 -8 52 -46 92 -84 40 -38 83
-76 97 -85 13 -9 45 -36 71 -61 50 -47 66 -58 66 -43 0 9 -48 54 -203 193 -33
30 -72 66 -87 80 -25 26 -149 128 -200 165 -14 11 -35 28 -44 38 -19 19 -30
22 -24 8z"/>
<path d="M9458 3303 c6 -2 12 -11 12 -19 0 -8 4 -14 9 -14 15 0 398 -391 429
-438 32 -49 119 -135 126 -124 3 6 -2 19 -12 29 -11 10 -56 61 -102 113 -94
109 -450 460 -465 459 -5 0 -4 -3 3 -6z"/>
<path d="M2118 3190 c-9 -6 -28 -29 -42 -53 -14 -24 -55 -84 -92 -133 -36 -49
-69 -96 -72 -104 -3 -8 -14 -21 -25 -29 -10 -7 -27 -32 -38 -55 -10 -22 -23
-48 -28 -56 -5 -8 -15 -28 -22 -45 -8 -16 -20 -36 -26 -43 -7 -7 -13 -20 -13
-28 0 -18 27 -18 37 0 4 8 23 30 41 50 17 19 32 42 32 50 0 16 43 80 157 233
45 62 83 116 83 121 0 5 11 21 25 36 41 44 29 83 -17 56z"/>
<path d="M1268 2943 c6 -2 18 -2 25 0 6 3 1 5 -13 5 -14 0 -19 -2 -12 -5z"/>
<path d="M9070 2933 c0 -9 40 -36 45 -31 2 2 -8 11 -21 21 -13 10 -24 14 -24
10z"/>
<path d="M1135 2920 c-8 -13 4 -32 16 -25 12 8 12 35 0 35 -6 0 -13 -4 -16
-10z"/>
<path d="M9140 2872 c0 -5 14 -21 30 -37 17 -16 30 -24 30 -19 0 6 -13 23 -30
37 -16 15 -30 23 -30 19z"/>
<path d="M9211 2807 c-1 -14 51 -67 82 -83 15 -8 27 -11 27 -7 0 11 -76 73
-88 73 -6 0 -13 6 -15 13 -3 6 -6 8 -6 4z"/>
<path d="M1900 2749 c0 -5 5 -7 10 -4 6 3 10 8 10 11 0 2 -4 4 -10 4 -5 0 -10
-5 -10 -11z"/>
<path d="M1680 2629 c0 -5 5 -7 10 -4 6 3 10 8 10 11 0 2 -4 4 -10 4 -5 0 -10
-5 -10 -11z"/>
<path d="M2420 2530 c0 -5 5 -10 11 -10 5 0 7 5 4 10 -3 6 -8 10 -11 10 -2 0
-4 -4 -4 -10z"/>
<path d="M2762 2429 c2 -6 8 -10 13 -10 5 0 11 4 13 10 2 6 -4 11 -13 11 -9 0
-15 -5 -13 -11z"/>
<path d="M1920 2370 c0 -5 5 -10 10 -10 6 0 10 5 10 10 0 6 -4 10 -10 10 -5 0
-10 -4 -10 -10z"/>
<path d="M1472 2298 c-7 -7 -12 -20 -12 -30 0 -10 -4 -18 -9 -18 -5 0 -14 -14
-21 -30 -7 -17 -26 -49 -42 -71 -27 -38 -32 -79 -8 -64 15 9 82 102 110 152
29 53 17 96 -18 61z"/>
<path d="M6180 1900 c0 -19 3 -21 12 -12 9 9 9 15 0 24 -9 9 -12 7 -12 -12z"/>
<path d="M7240 1873 c0 -17 5 -35 11 -38 5 -4 14 -18 19 -31 5 -13 14 -24 20
-24 12 0 13 17 1 24 -4 3 -11 18 -14 33 -3 16 -13 37 -21 48 -15 19 -15 19
-16 -12z"/>
<path d="M6587 1806 c-5 -13 1 -16 29 -16 24 0 34 4 32 13 -7 19 -54 21 -61 3z"/>
<path d="M6358 1783 c7 -3 16 -2 19 1 4 3 -2 6 -13 5 -11 0 -14 -3 -6 -6z"/>
<path d="M6561 1714 c0 -11 3 -14 6 -6 3 7 2 16 -1 19 -3 4 -6 -2 -5 -13z"/>
<path d="M8132 1658 c-17 -17 -15 -26 7 -38 18 -9 20 -7 19 20 -1 32 -7 37
-26 18z"/>
<path d="M7337 1633 c-13 -13 -19 -14 -29 -5 -18 18 -28 14 -28 -11 0 -13 -5
-28 -11 -34 -17 -17 -1 -37 16 -23 11 9 16 6 21 -17 9 -37 22 -53 46 -53 30 0
31 24 3 65 -28 43 -27 53 4 33 12 -7 21 -23 21 -35 0 -13 4 -23 9 -23 5 0 13
-9 16 -21 5 -14 10 -18 17 -11 10 10 -9 85 -32 132 -10 22 -33 23 -53 3z"/>
<path d="M7005 1613 c9 -37 25 -53 25 -26 0 29 -10 53 -22 53 -6 0 -7 -11 -3
-27z"/>
<path d="M2130 1586 c0 -8 -3 -21 -6 -30 -5 -12 0 -16 19 -16 14 0 27 -5 29
-11 2 -6 15 -9 28 -7 23 4 23 5 -12 20 -21 10 -38 24 -38 32 0 8 -4 18 -10 21
-5 3 -10 0 -10 -9z"/>
<path d="M7206 1543 c-3 -3 -3 -10 0 -14 7 -12 44 -12 44 0 0 10 -36 21 -44
14z"/>
<path d="M7030 1514 c0 -8 6 -14 13 -14 7 0 20 -17 29 -37 13 -30 17 -33 17
-15 1 12 -4 22 -10 22 -6 0 -8 8 -5 18 4 11 -2 21 -19 29 -20 9 -25 8 -25 -3z"/>
<path d="M7290 1470 c0 -5 5 -10 10 -10 6 0 10 5 10 10 0 6 -4 10 -10 10 -5 0
-10 -4 -10 -10z"/>
<path d="M7195 1450 c3 -5 10 -10 16 -10 5 0 9 5 9 10 0 6 -7 10 -16 10 -8 0
-12 -4 -9 -10z"/>
<path d="M3740 1419 c0 -5 5 -7 10 -4 6 3 10 8 10 11 0 2 -4 4 -10 4 -5 0 -10
-5 -10 -11z"/>
<path d="M7403 1228 c-23 -30 -24 -41 -2 -21 12 12 20 25 17 28 -3 3 -10 0
-15 -7z"/>
<path d="M7287 1199 c7 -7 15 -10 18 -7 3 3 -2 9 -12 12 -14 6 -15 5 -6 -5z"/>
</g>
</svg>
